<svg width="47" height="32" viewBox="0 0 47 32" fill="none" xmlns="http://www.w3.org/2000/svg">
<g clip-path="url(#clip0_2106_2117)">
<path d="M26.3453 7.61738C26.7842 7.17516 27.1256 6.64595 27.3475 6.06382C27.5694 5.48169 27.667 4.85953 27.634 4.2374C27.6009 3.61527 27.438 3.00696 27.1556 2.45162C26.8732 1.89627 26.4777 1.40622 25.9945 1.01298C25.5112 0.619753 24.951 0.332064 24.3499 0.168437C23.7488 0.00480994 23.12 -0.0311285 22.5042 0.0629348C21.8883 0.156998 21.2989 0.378979 20.7741 0.714587C20.2492 1.05019 19.8004 1.49199 19.4566 2.01154C19.2439 2.2242 1.47117 24.1316 1.30383 24.3826C0.861801 24.8242 0.517447 25.3538 0.293065 25.937C0.0686833 26.5201 -0.0307239 27.1439 0.00127959 27.7679C0.0332831 28.392 0.195984 29.0023 0.478848 29.5595C0.761711 30.1166 1.15843 30.6082 1.64332 31.0023C2.12822 31.3964 2.69047 31.6842 3.29368 31.8472C3.89689 32.0102 4.52761 32.0447 5.145 31.9485C5.76239 31.8523 6.35269 31.6275 6.87768 31.2886C7.40267 30.9498 7.85064 30.5044 8.1926 29.9815C8.40526 29.7758 26.1815 7.86839 26.3453 7.61738Z" fill="white"/>
<path d="M36.6297 18.0133C37.0692 17.5714 37.4112 17.0424 37.6338 16.4603C37.8564 15.8782 37.9546 15.2559 37.922 14.6335C37.8895 14.0111 37.727 13.4025 37.4449 12.8467C37.1628 12.291 36.7674 11.8005 36.2843 11.4069C35.8011 11.0133 35.2408 10.7252 34.6395 10.5613C34.0383 10.3974 33.4093 10.3612 32.7932 10.4551C32.1771 10.5491 31.5875 10.771 31.0624 11.1067C30.5373 11.4423 30.0883 11.8842 29.7444 12.404C29.5317 12.6166 20.1957 24.1246 20.0283 24.3791C19.5857 24.8204 19.2406 25.3498 19.0156 25.9329C18.7906 26.5161 18.6906 27.14 18.7221 27.7643C18.7536 28.3885 18.9159 28.9992 19.1985 29.5567C19.481 30.1142 19.8776 30.6062 20.3624 31.0007C20.8473 31.3952 21.4096 31.6834 22.0129 31.8467C22.6162 32.01 23.2472 32.0448 23.8648 31.9487C24.4824 31.8526 25.0729 31.6278 25.5982 31.289C26.1234 30.9501 26.5715 30.5046 26.9136 29.9815C27.1297 29.7758 36.4623 18.2678 36.6297 18.0133Z" fill="white"/>
<path d="M41.9043 8.93169C44.3707 8.93169 46.3702 6.93226 46.3702 4.46585C46.3702 1.99943 44.3707 0 41.9043 0C39.4379 0 37.4385 1.99943 37.4385 4.46585C37.4385 6.93226 39.4379 8.93169 41.9043 8.93169Z" fill="white"/>
<path d="M4.46585 8.93169C6.93226 8.93169 8.93169 6.93226 8.93169 4.46585C8.93169 1.99943 6.93226 0 4.46585 0C1.99943 0 0 1.99943 0 4.46585C0 6.93226 1.99943 8.93169 4.46585 8.93169Z" fill="white"/>
</g>
<defs>
<clipPath id="clip0_2106_2117">
<rect width="46.3702" height="32" fill="white"/>
</clipPath>
</defs>
</svg>
