<svg width="13" height="12" viewBox="0 0 13 12" fill="none" xmlns="http://www.w3.org/2000/svg">
<path d="M0.5 10.5C0.5 10.8978 0.658035 11.2794 0.93934 11.5607C1.22064 11.842 1.60218 12 2 12H11C11.3978 12 11.7794 11.842 12.0607 11.5607C12.342 11.2794 12.5 10.8978 12.5 10.5V1.5C12.5 1.10218 12.342 0.720644 12.0607 0.43934C11.7794 0.158035 11.3978 0 11 0L2 0C1.60218 0 1.22064 0.158035 0.93934 0.43934C0.658035 0.720644 0.5 1.10218 0.5 1.5L0.5 10.5ZM3.875 5.625H8.21975L6.6095 4.0155C6.53908 3.94509 6.49953 3.84958 6.49953 3.75C6.49953 3.65042 6.53908 3.55491 6.6095 3.4845C6.67991 3.41408 6.77542 3.37453 6.875 3.37453C6.97458 3.37453 7.07009 3.41408 7.1405 3.4845L9.3905 5.7345C9.42542 5.76933 9.45313 5.81072 9.47203 5.85627C9.49094 5.90183 9.50067 5.95067 9.50067 6C9.50067 6.04933 9.49094 6.09817 9.47203 6.14372C9.45313 6.18928 9.42542 6.23067 9.3905 6.2655L7.1405 8.5155C7.07009 8.58592 6.97458 8.62547 6.875 8.62547C6.77542 8.62547 6.67991 8.58592 6.6095 8.5155C6.53908 8.44509 6.49953 8.34958 6.49953 8.25C6.49953 8.15042 6.53908 8.05491 6.6095 7.9845L8.21975 6.375H3.875C3.77554 6.375 3.68016 6.33549 3.60984 6.26517C3.53951 6.19484 3.5 6.09946 3.5 6C3.5 5.90054 3.53951 5.80516 3.60984 5.73484C3.68016 5.66451 3.77554 5.625 3.875 5.625V5.625Z" fill="#2D3748"/>
</svg>
