<svg width="19" height="18" viewBox="0 0 19 18" fill="none" xmlns="http://www.w3.org/2000/svg">
<path d="M17.5707 15.4476L14.0872 11.9641C15.1479 10.3763 15.58 8.45079 15.2996 6.56204C15.0192 4.67329 14.0463 2.95637 12.5701 1.74523C11.0939 0.534091 9.22003 -0.0846606 7.3129 0.00933101C5.40577 0.103323 3.60178 0.903337 2.25184 2.25376C0.901891 3.60418 0.102515 5.40845 0.00919756 7.31562C-0.0841198 9.22278 0.535294 11.0965 1.74695 12.5722C2.95861 14.048 4.67588 15.0203 6.56473 15.3C8.45358 15.5798 10.3789 15.1469 11.9663 14.0857L15.4498 17.5684C15.7335 17.8451 16.114 18 16.5103 18C16.9065 18 17.2871 17.8451 17.5707 17.5684C17.8519 17.2872 18.0099 16.9057 18.0099 16.508C18.0099 16.1103 17.8519 15.7289 17.5707 15.4476ZM7.69834 2.25893C8.77371 2.25893 9.82493 2.57782 10.7191 3.17526C11.6132 3.7727 12.3101 4.62187 12.7216 5.61538C13.1331 6.60889 13.2408 7.70212 13.031 8.75682C12.8212 9.81152 12.3034 10.7803 11.543 11.5407C10.7826 12.3011 9.81378 12.819 8.75908 13.0288C7.70438 13.2386 6.61115 13.1309 5.61764 12.7194C4.62413 12.3078 3.77496 11.6109 3.17752 10.7168C2.58008 9.82267 2.26119 8.77145 2.26119 7.69608C2.26278 6.25455 2.83613 4.87251 3.85545 3.85319C4.87477 2.83387 6.25681 2.26052 7.69834 2.25893Z" fill="#CBD5E0"/>
</svg>
