<svg width="70" height="70" viewBox="0 0 70 70" fill="none" xmlns="http://www.w3.org/2000/svg">
<path d="M58.0298 56.9954C44.4635 67.441 25.5411 67.3575 12.0676 56.7924L21.9428 52.1633C22.4131 51.9423 22.8644 51.683 23.2923 51.3881C23.4222 51.2988 23.5521 51.2055 23.6759 51.108C24.7506 50.2857 25.6353 49.2411 26.2695 48.0457C26.7489 47.1271 27.0674 46.1332 27.2111 45.1071C27.3102 44.4413 27.3604 43.7691 27.3613 43.0959C27.3613 42.3938 27.343 41.6916 27.3187 40.9894C27.3045 40.5307 27.2923 40.0701 27.2862 39.6114C27.2781 38.9688 27.2713 38.3255 27.2659 37.6815L27.6718 37.8844L28.7271 38.4303L29.2162 38.5135L34.8742 39.4755L41.1897 40.551L41.3805 47.0452L41.4434 49.1679L41.4738 50.1989V50.2618L41.6768 50.347L43.9233 51.2603L58.0298 56.9954Z" fill="#F2A196"/>
<path d="M41.4718 50.2618C40.7743 50.3818 40.0567 50.2706 39.4282 49.9452L27.3187 40.0477C27.3045 39.5891 27.2923 40.068 27.2862 39.6094C27.2781 38.9667 27.2713 38.3234 27.2659 37.6794L27.6718 37.8824L28.7271 38.4283L29.2162 38.5115L34.8742 39.4734L41.1897 40.549L41.3805 47.0431L41.4434 49.1659L41.4738 50.1968V50.2618H41.4718Z" fill="#E88870"/>
<path d="M58.0298 56.9954C44.4635 67.441 25.5411 67.3575 12.0676 56.7924L21.9428 52.1633C22.4131 51.9423 22.8644 51.683 23.2923 51.3881C23.4222 51.2988 23.5521 51.2055 23.6759 51.108C28.4551 54.5093 34.9777 56.6544 40.6194 54.1156C41.9629 53.5068 43.1968 52.5246 43.9274 51.2623L58.0298 56.9954Z" fill="url(#paint0_linear_2106_3267)"/>
<path d="M54.3971 16.3503C54.3788 16.47 54.3565 16.5877 54.3301 16.7055C54.1894 17.3088 53.9632 17.889 53.6584 18.4284L53.6422 18.4568C53.5265 18.6598 53.4027 18.8627 53.2688 19.0657C52.9134 19.5866 52.5257 20.0848 52.1079 20.5573L51.8583 20.8353C51.6899 21.024 51.5194 21.2087 51.3489 21.3914C52.252 21.1884 53.1267 22.0306 53.287 22.9398C53.4473 23.849 53.0841 24.7663 52.6356 25.578C51.8502 27.0149 50.7178 27.9707 49.7213 29.2188C48.9745 30.1483 48.5605 31.2482 47.7467 32.1371L47.6858 32.2041C45.5367 34.4608 42.1435 34.9884 39.3186 35.9524C38.3039 36.3015 27.3004 39.4268 27.3004 40.1086C27.3004 39.9605 26.2228 38.891 24.8651 37.5901C19.9945 32.9651 18.3933 25.8195 21.2913 19.6907C24.4065 13.0951 31.481 8.38893 38.2186 6.12816C40.3252 5.42192 42.7158 4.94704 44.7128 5.92522C46.7097 6.9034 47.7041 9.93737 46.0481 11.4188C47.0897 10.6308 48.3852 10.2544 49.6868 10.3615C50.8891 10.4368 52.023 10.9468 52.8771 11.7963C53.5537 12.476 54.04 13.3213 54.2875 14.2478C54.471 14.9332 54.5084 15.6496 54.3971 16.3503Z" fill="#845161"/>
<path d="M54.3971 16.3503C54.3789 16.47 54.3565 16.5877 54.3301 16.7055C54.3119 16.74 54.2936 16.7765 54.2754 16.8171C54.046 17.3407 53.9405 17.9048 53.6665 18.4284L53.6503 18.4568C53.5346 18.6598 53.4108 18.8627 53.2769 19.0657C52.925 19.5892 52.5371 20.0876 52.1161 20.5573L51.8583 20.8353C51.6899 21.024 51.5194 21.2087 51.3489 21.3914C52.252 21.1884 53.1267 22.0306 53.287 22.9398C53.4474 23.849 53.0841 24.7663 52.6356 25.578C51.8502 27.0149 50.7178 27.9707 49.7214 29.2188C48.9745 30.1483 48.5605 31.2482 47.7467 32.1371C46.8019 31.0136 46.2003 29.6419 46.0136 28.1858C45.6808 25.4948 45.8837 22.5623 45.7924 19.8389C45.7356 18.126 45.1836 17.8095 46.2105 16.4234C47.0362 15.4046 47.9913 14.4979 49.0516 13.7263C49.8796 13.1804 50.9451 13.0951 51.9334 13.2352C52.7946 13.3529 53.6072 13.7038 54.2835 14.2499C54.468 14.9343 54.5067 15.6499 54.3971 16.3503Z" fill="#69303A"/>
<ellipse cx="25.269" cy="31.9971" rx="3.45" ry="3.45" fill="#F2A196"/>
<ellipse cx="26.3628" cy="31.9971" rx="3.08876" ry="3.08877" fill="#E88870"/>
<path d="M26.4095 28.75L27.3024 40.3177L40.7859 48.1958C42.7183 48.9166 44.8824 48.0548 45.7904 46.203C47.7305 42.2294 50.8436 35.9544 50.4337 33.6206C49.8249 30.1706 48.2013 28.953 48.2013 28.953C48.4273 27.6 48.6518 26.2511 48.8751 24.9063C49.1308 23.3822 49.4575 21.7912 49.078 20.259C48.6458 18.5015 47.3185 17.7526 46.2267 16.4396C43.3531 20.1412 38.6286 22.2336 34.5028 24.3543C32.376 25.4583 26.4095 28.75 26.4095 28.75Z" fill="#F2A196"/>
<path d="M36.378 28.3035C37.6159 28.3035 37.6159 30.2071 36.378 30.2173H36.3211C35.0832 30.2173 35.0832 28.3137 36.3211 28.3035H36.378Z" fill="#00214E"/>
<path d="M46.5494 28.0215C47.7001 28.0316 47.7001 29.787 46.5494 29.7972H46.4986C45.35 29.7972 45.35 28.0316 46.4986 28.0215H46.5494Z" fill="#00214E"/>
<path d="M41.5347 27.7536C41.5185 27.8246 44.246 35.0858 44.246 35.0858L40.6052 35.2624" stroke="#00214E"/>
<path d="M32.9138 26.3492C34.7925 25.9613 36.7249 25.907 38.6225 26.1889" stroke="#00214E"/>
<path d="M44.8974 26.3715C46.0574 26.1025 47.2528 26.0196 48.4388 26.126" stroke="#00214E"/>
<path d="M36.8752 37.2938C36.9309 37.2046 37.0214 37.1428 37.1248 37.1236C37.2282 37.1043 37.3349 37.1292 37.4191 37.1924C37.8412 37.4887 38.6123 38.1178 39.7082 38.3349C41.2019 38.6332 42.4966 38.0346 42.8071 38.4202C42.9817 38.6373 42.7686 38.9011 42.3607 39.2319C41.4971 39.8771 40.41 40.1471 39.345 39.9808C37.9081 39.7109 36.8285 38.0467 36.8285 37.4562C36.83 37.399 36.8461 37.3431 36.8752 37.2938Z" fill="white"/>
<defs>
<linearGradient id="paint0_linear_2106_3267" x1="12.0676" y1="64.7717" x2="58.0298" y2="64.7717" gradientUnits="userSpaceOnUse">
<stop stop-color="#16243F"/>
<stop offset="1" stop-color="#6878B1"/>
</linearGradient>
</defs>
</svg>
