<svg width="70" height="71" viewBox="0 0 70 71" fill="none" xmlns="http://www.w3.org/2000/svg">
<g filter="url(#filter0_d_2106_3227)">
<path d="M38.2195 44.6802C36.1089 44.6436 33.9963 44.5422 31.8025 44.4082C29.0689 44.2398 25.7467 44.9156 23.1369 43.8684C20.6042 42.8537 18.9908 41.2444 17.3267 39.2008C16.4601 38.1434 15.1227 37.6056 13.8259 37.1713C12.5291 36.737 11.1755 36.3373 10.1324 35.4524C9.08929 34.5676 8.45409 33.0313 9.05074 31.7995C10.518 28.7736 15.2912 29.7843 15.3013 25.2181C15.3013 23.6656 14.6093 21.9264 15.5306 20.6763C15.8431 20.298 16.2246 19.9826 16.6549 19.7468C18.7452 18.4581 21.4403 18.584 23.5144 17.3115C25.8563 15.8625 25.3692 13.1208 27.4555 11.2091C28.1523 10.6019 28.9052 10.0624 29.7041 9.59773C35.1672 6.21673 40.8151 6.53331 46.4122 9.75399C49.4056 11.481 52.0053 14.5779 53.229 17.7925C54.5867 21.3724 51.9079 25.352 54.1625 28.4652C54.6739 29.1714 55.3518 29.7437 55.9058 30.4175C58.2274 33.2383 54.6536 34.9755 53.1884 36.8913C52.0134 38.4316 52.194 40.6843 51.0656 42.2591C49.7567 44.0855 47.2098 44.392 44.9591 44.532C42.6476 44.6842 40.4336 44.7187 38.2195 44.6802Z" fill="#845161"/>
<path d="M61.3771 55.1763C47.8109 65.6219 28.8884 65.5384 15.415 54.9733L25.2901 50.3443C25.5924 50.2013 25.887 50.0428 26.1729 49.8694L26.4002 49.7273C26.4814 49.6766 26.5605 49.6238 26.6397 49.569C27.8855 48.7095 28.9066 47.5632 29.6168 46.2266C30.4286 44.6944 30.6965 43.0018 30.7086 41.2768C30.7086 40.3291 30.6701 39.3814 30.6457 38.4357C30.6457 38.2219 30.6417 38.0088 30.6335 37.7964C30.6254 37.1538 30.6187 36.5104 30.6132 35.8664L31.0191 36.0694L32.0744 36.6153L38.2215 37.6604L44.537 38.736L44.7217 45.0069V45.224L44.8171 48.4447L47.1448 49.3925L48.9713 50.1312L61.3771 55.1763Z" fill="#F2A196"/>
<path d="M44.7177 43.5843C44.1657 43.9252 43.6441 44.0856 43.1875 44.0368C40.186 43.7142 34.3311 41.3621 30.6457 37.009C30.6457 36.7952 30.6417 36.5821 30.6335 36.3697C30.6254 35.7271 30.6187 35.0838 30.6133 34.4398L31.0191 34.6427L32.0744 35.1886L38.2215 36.2338L44.537 37.3093L44.7177 43.5843Z" fill="#E88870"/>
<circle cx="25.5397" cy="29.3662" r="3.45" fill="#F2A196"/>
<circle cx="26.7573" cy="28.9603" r="3.45" fill="#E88870"/>
<path d="M48.9875 24.1425C51.3701 32.4002 46.3067 42.3808 43.1956 42.3808C38.9338 42.3808 28.5838 38.9755 26.2033 30.7198C23.8228 22.4642 26.9867 14.2978 33.2779 12.4815C39.569 10.6652 46.603 15.8869 48.9875 24.1425Z" fill="#F2A196"/>
<path d="M36.1698 25.8574C37.4077 25.8574 37.4077 27.761 36.1698 27.7691H36.1129C34.875 27.7691 34.875 25.8675 36.1129 25.8574H36.1698Z" fill="#00214E"/>
<path d="M46.3696 25.0781C47.5182 25.0781 47.5182 26.8437 46.3696 26.8538H46.3168C45.1682 26.8437 45.1682 25.0882 46.3168 25.0781H46.3696Z" fill="#00214E"/>
<ellipse cx="36.1657" cy="26.8295" rx="3.85588" ry="3.85588" stroke="white"/>
<ellipse cx="46.95" cy="26.2206" rx="3.85588" ry="3.85588" stroke="white"/>
<path d="M41.1317 13.1654C40.259 16.9625 38.3534 20.1852 34.8689 22.5312C31.1125 25.1329 27.1429 26.3871 22.8162 27.2516C22.9258 24.591 22.6336 20.8488 24.0055 18.4744C25.5625 15.8402 27.8366 13.7033 30.5625 12.3131C33.566 10.7606 38.2154 9.23852 41.5923 10.3161C41.4993 11.2747 41.3454 12.2264 41.1317 13.1654V13.1654Z" fill="#845161"/>
<path d="M41.4868 24.5281C41.4706 24.5971 43.0941 31.0912 43.0941 31.0912H40.5574" stroke="#00214E"/>
<path d="M43.8125 22.4601C45.2475 21.7242 46.9098 21.5659 48.4579 22.0177" stroke="#00214E"/>
<path d="M32.6284 23.2049C34.6048 22.1971 36.9275 22.1227 38.9643 23.002" stroke="#00214E"/>
<path d="M40.0216 26.8295L43.0941 26.5677" stroke="white"/>
<path d="M61.3771 55.1763C47.8109 65.6219 28.8884 65.5384 15.415 54.9733L25.2901 50.3443C25.7604 50.1232 26.2118 49.8639 26.6397 49.569C26.7695 49.4797 26.8994 49.3864 27.0232 49.289C28.098 48.4666 28.9826 47.4221 29.6168 46.2266C30.0962 45.308 30.4147 44.3141 30.5585 43.288C30.7018 43.4269 30.8521 43.5583 31.009 43.6817C32.2533 44.6019 33.6038 45.3691 35.0313 45.9668C35.7243 46.2559 36.433 46.5059 37.154 46.7157C39.3263 47.3491 41.5944 47.589 43.8511 47.4239C44.1636 47.3996 44.4782 47.3691 44.7907 47.3468L44.8212 48.3778V48.4366L47.2767 49.4351L61.3771 55.1763Z" fill="url(#paint0_linear_2106_3227)"/>
<path d="M36.2124 33.3824C36.2685 33.2937 36.359 33.2323 36.4622 33.2131C36.5654 33.1938 36.6719 33.2184 36.7563 33.281C37.1784 33.5773 37.9496 34.2064 39.0454 34.4255C40.5391 34.7218 41.8339 34.1252 42.1444 34.5088C42.3189 34.7259 42.1058 34.9918 41.6979 35.3205C40.8348 35.9668 39.7473 36.2368 38.6822 36.0694C37.2454 35.7995 36.1657 34.1353 36.1657 33.5468C36.1674 33.489 36.1834 33.4325 36.2124 33.3824Z" fill="white"/>
</g>
<defs>
<filter id="filter0_d_2106_3227" x="-3.5" y="0.5" width="77" height="77" filterUnits="userSpaceOnUse" color-interpolation-filters="sRGB">
<feFlood flood-opacity="0" result="BackgroundImageFix"/>
<feColorMatrix in="SourceAlpha" type="matrix" values="0 0 0 0 0 0 0 0 0 0 0 0 0 0 0 0 0 0 127 0" result="hardAlpha"/>
<feOffset dy="4"/>
<feGaussianBlur stdDeviation="2"/>
<feComposite in2="hardAlpha" operator="out"/>
<feColorMatrix type="matrix" values="0 0 0 0 0 0 0 0 0 0 0 0 0 0 0 0 0 0 0.25 0"/>
<feBlend mode="normal" in2="BackgroundImageFix" result="effect1_dropShadow_2106_3227"/>
<feBlend mode="normal" in="SourceGraphic" in2="effect1_dropShadow_2106_3227" result="shape"/>
</filter>
<linearGradient id="paint0_linear_2106_3227" x1="15.415" y1="62.9536" x2="61.3771" y2="62.9536" gradientUnits="userSpaceOnUse">
<stop stop-color="#16243F"/>
<stop offset="1" stop-color="#6878B1"/>
</linearGradient>
</defs>
</svg>
