<svg width="50" height="50" viewBox="0 0 50 50" fill="none" xmlns="http://www.w3.org/2000/svg">
<rect width="50" height="50" rx="25" fill="white" fill-opacity="0.04"/>
<path d="M41.3941 40.0832C31.5635 47.6525 17.8516 47.592 8.08826 39.9362L15.2441 36.5818C15.5849 36.4216 15.912 36.2337 16.2221 36.02C16.3162 35.9553 16.4103 35.8876 16.5 35.8171C17.2788 35.2212 17.9199 34.4642 18.3794 33.5979C18.7269 32.9323 18.9576 32.2121 19.0618 31.4685C19.1336 30.9861 19.17 30.499 19.1706 30.0112C19.1706 29.17 19.125 28.3288 19.1162 27.4862C19.1103 27.0195 19.1054 26.5533 19.1015 26.0876L19.3956 26.2347L20.1603 26.6303L20.5147 26.6906L24.6147 27.3876L29.1912 28.1671L29.3294 32.8729L29.375 34.4112L29.3971 35.1582V35.2068L31.1765 35.9303L41.3941 40.0832Z" fill="#E18477"/>
<path d="M29.3912 35.0259C28.8857 35.1128 28.3657 35.0323 27.9103 34.7965L19.1353 27.6185C19.125 27.2862 19.1162 27.6347 19.1118 27.3023C19.1059 26.8367 19.101 26.3705 19.097 25.9038L19.3912 26.0509L20.1559 26.4465L20.5103 26.5067L24.6103 27.2038L29.1868 27.9832L29.325 32.6891L29.3706 34.2273L29.3926 34.9744V35.0229L29.3912 35.0259Z" fill="#A76962"/>
<path d="M35.9529 11.1818C38.4759 12.611 40.463 14.8252 41.6117 17.4876C40.6352 17.5667 39.6724 17.7673 38.7456 18.0847H38.7367C38.4956 18.167 38.2564 18.2577 38.0191 18.3568L37.872 18.42L37.6382 18.5229V18.5229C37.5603 18.5568 37.4823 18.5935 37.4059 18.6318C37.3294 18.67 37.2588 18.7068 37.175 18.7465C37.0912 18.7862 37.0279 18.8244 36.947 18.8656C36.8662 18.9068 36.8132 18.9376 36.747 18.9759C36.5882 19.0641 36.4323 19.1568 36.2794 19.2523C36.2186 19.2896 36.1583 19.3278 36.0985 19.367C35.5088 19.7488 34.955 20.1834 34.4441 20.6656C33.7985 21.2759 33.1956 21.9773 32.5323 22.6038C31.9635 23.1771 31.2973 23.6447 30.5647 23.9847C29.147 24.595 27.5073 24.9479 26.0353 25.4553L19.1235 27.845C19.1235 27.7362 18.3412 26.9626 17.3588 26.02C14.7735 23.5622 13.2755 20.1745 13.197 16.6082C12.9588 5.83469 25.6147 2.66705 34.2265 4.97587C35.5944 5.34421 36.8953 5.92692 38.0809 6.70234C38.866 7.21005 39.5844 7.81428 40.2191 8.50087C40.9598 9.29774 41.5546 10.2186 41.9765 11.2215L41.8603 11.2009C39.9082 10.8409 37.9073 10.8344 35.9529 11.1818Z" fill="url(#paint0_linear_2172_6024)"/>
<path d="M41.6118 17.4876C40.6353 17.5667 39.6724 17.7672 38.7456 18.0846H38.7367C38.4927 18.1621 38.2531 18.2529 38.0191 18.3567L37.872 18.4199L37.6353 18.5258C37.5573 18.5611 37.4809 18.5964 37.4029 18.6346C37.325 18.6729 37.2559 18.7096 37.172 18.7494C37.0882 18.7891 37.025 18.8273 36.9441 18.8685C36.8632 18.9096 36.8103 18.9405 36.7441 18.9788C36.5853 19.067 36.4294 19.1596 36.2765 19.2552L36.0956 19.3699C35.5058 19.7517 34.9521 20.1863 34.4412 20.6685C33.7956 21.2788 33.1926 21.9802 32.5294 22.6067C32.3147 22.6949 32.1015 22.7876 31.8882 22.8802C31.9147 22.8685 31.7191 20.3802 31.725 20.1288C31.7495 19.168 31.8593 18.2113 32.0529 17.2699C32.4265 15.4596 32.1882 13.7758 32.5485 11.9199C32.6246 11.5057 32.7228 11.0958 32.8426 10.692C33.4573 10.2332 34.3132 10.092 35.0588 9.98465C36.8456 9.72729 38.6838 9.97141 40.4029 10.5126C40.6872 10.6026 40.9665 10.7076 41.2397 10.8273C41.3691 10.8846 41.4956 10.9464 41.6206 11.0126C41.7308 11.0956 41.8502 11.1657 41.9765 11.2214C39.9846 10.8539 37.9436 10.8405 35.947 11.1817C38.4722 12.6099 40.4614 14.8243 41.6118 17.4876Z" fill="url(#paint1_linear_2172_6024)"/>
<circle cx="17.6544" cy="21.9685" r="2.5" fill="#E18477"/>
<circle cx="18.4471" cy="21.9685" r="2.23824" fill="#A76962"/>
<path d="M18.481 19.6097L19.1251 27.992L28.8957 33.7009C30.2984 34.2241 31.869 33.5966 32.5251 32.2509C33.931 29.3715 36.1868 24.8259 35.8898 23.1332C35.4486 20.6332 34.2721 19.7509 34.2721 19.7509C34.4359 18.7705 34.5986 17.793 34.7604 16.8185C34.9457 15.7141 35.181 14.5612 34.9074 13.4509C34.5942 12.1788 33.6324 11.6347 32.8413 10.6832C30.7589 13.3656 27.3354 14.8818 24.3457 16.4185C22.8015 17.2303 18.481 19.6097 18.481 19.6097Z" fill="#E18477"/>
<path d="M23.1941 17.8759C24.5559 17.5967 25.9561 17.5594 27.3309 17.7656" stroke="#00214E"/>
<path d="M31.8779 17.8921C32.7186 17.6978 33.5847 17.6378 34.4441 17.7141" stroke="#00214E"/>
<path d="M28.4913 23.5509C28.2717 23.6633 28.1669 23.9189 28.2444 24.153C28.3218 24.3871 28.5583 24.5298 28.8015 24.4891" stroke="#00214E"/>
<path d="M31.1456 22.0303C31.1456 22.0303 31.1882 22.8612 31.3838 23.2509C31.4676 23.4185 31.5985 23.5597 31.6779 23.7273C32.0029 24.3641 31.4779 24.4994 30.9706 24.4994" stroke="#00214E"/>
<path d="M41.3941 40.0832C31.5635 47.6525 17.8516 47.592 8.08826 39.9362L15.2441 36.5817C15.5849 36.4215 15.912 36.2337 16.2221 36.02C16.3162 35.9553 16.4103 35.8876 16.5 35.817C17.2788 35.2211 17.9199 34.4642 18.3794 33.5979C18.7269 32.9323 18.9576 32.2121 19.0618 31.4685C19.1656 31.5691 19.2746 31.6644 19.3883 31.7538C20.29 32.4206 21.2685 32.9765 22.303 33.4097C22.8052 33.6192 23.3187 33.8003 23.8412 33.9523C25.4153 34.4113 27.0588 34.5851 28.6941 34.4656C28.9206 34.4479 29.1486 34.4259 29.375 34.4097L29.3971 35.1567V35.2053L31.1765 35.9288L41.3941 40.0832Z" fill="#00214E"/>
<ellipse cx="26.2706" cy="20.0817" rx="2.79412" ry="2.79412" stroke="white"/>
<ellipse cx="34.0854" cy="19.6406" rx="2.79412" ry="2.79412" stroke="white"/>
<path d="M29.0647 20.0818L31.2912 19.8906" stroke="white"/>
<path d="M26.0618 26.1818C26.1027 26.1174 26.1686 26.0729 26.2436 26.059C26.3186 26.045 26.396 26.0629 26.4574 26.1082C26.7618 26.3229 27.3221 26.7788 28.1162 26.9362C29.1985 27.1523 30.1368 26.7185 30.3618 26.9979C30.4882 27.1553 30.3338 27.3479 30.0382 27.5935C29.4124 28.0609 28.6247 28.2565 27.8529 28.1362C26.8118 27.9406 26.0294 26.7347 26.0294 26.3068C26.0297 26.2631 26.0408 26.2201 26.0618 26.1818V26.1818Z" fill="white"/>
<ellipse cx="25.6125" cy="20.0557" rx="0.480882" ry="1.16765" transform="rotate(-85.77 25.6125 20.0557)" fill="#00214E"/>
<ellipse cx="33.188" cy="19.8172" rx="1.16765" ry="0.480882" transform="rotate(-8.85999 33.188 19.8172)" fill="#00214E"/>
<defs>
<linearGradient id="paint0_linear_2172_6024" x1="29.8427" y1="30.3504" x2="47.2225" y2="8.79826" gradientUnits="userSpaceOnUse">
<stop stop-color="#16243F"/>
<stop offset="1" stop-color="#6878B1"/>
</linearGradient>
<linearGradient id="paint1_linear_2172_6024" x1="31.7265" y1="22.8799" x2="41.9765" y2="22.8799" gradientUnits="userSpaceOnUse">
<stop stop-color="#16243F"/>
<stop offset="1" stop-color="#6878B1"/>
</linearGradient>
</defs>
</svg>
